<?xml version="1.0" standalone="no"?>
<!DOCTYPE svg PUBLIC "-//W3C//DTD SVG 20010904//EN"
 "http://www.w3.org/TR/2001/REC-SVG-20010904/DTD/svg10.dtd">
<svg version="1.0" xmlns="http://www.w3.org/2000/svg"
 width="300.000000pt" height="300.000000pt" viewBox="0 0 300.000000 300.000000"
 preserveAspectRatio="xMidYMid meet">
<metadata>
Created by potrace 1.10, written by Peter Selinger 2001-2011
</metadata>
<g transform="translate(0.000000,300.000000) scale(0.100000,-0.100000)"
fill="#000000" stroke="none">
<path d="M1010 2613 c0 -5 21 -13 48 -20 46 -11 127 -51 119 -60 -2 -2 -17 1
-32 7 -38 15 -43 6 -5 -10 53 -22 32 -29 -31 -9 -75 24 -179 26 -179 4 0 -8
17 -23 38 -34 l37 -20 -45 -2 c-44 -1 -44 -1 -12 -9 42 -10 58 -25 17 -16
l-30 6 25 -15 c24 -14 23 -14 -21 -9 -44 6 -89 -7 -89 -25 0 -4 12 -14 28 -21
l27 -13 -35 -9 c-60 -17 -80 -27 -80 -43 0 -8 9 -15 19 -15 11 0 23 -4 26 -10
4 -6 -6 -10 -24 -10 -16 0 -33 -4 -36 -10 -4 -6 7 -8 27 -5 26 4 29 3 13 -4
-11 -5 -31 -10 -45 -11 l-25 -2 25 -7 c24 -7 24 -7 -8 -14 -43 -9 -122 -81
-106 -97 9 -9 17 -9 32 -1 11 6 27 11 34 11 7 -1 -3 -9 -22 -20 -19 -11 -31
-19 -27 -20 5 0 17 5 28 10 30 17 22 4 -24 -39 -47 -43 -83 -103 -116 -191
l-21 -55 28 35 c36 46 84 92 89 86 3 -3 -9 -22 -26 -43 -41 -52 -77 -134 -103
-234 -17 -69 -20 -101 -14 -178 6 -97 26 -153 26 -74 0 22 7 60 15 84 18 50
80 145 100 152 22 9 11 -19 -24 -59 -18 -20 -40 -53 -47 -71 -22 -52 -44 -181
-43 -248 l2 -60 8 73 c11 95 41 162 95 212 42 38 74 51 74 30 0 -5 -6 -10 -14
-10 -25 0 -76 -51 -100 -99 -31 -61 -44 -110 -17 -60 40 72 102 120 154 118
16 0 12 -4 -15 -14 -20 -7 -48 -21 -62 -31 -30 -19 -81 -99 -72 -113 3 -5 2
-31 -3 -57 -5 -27 -6 -67 -2 -89 l7 -40 8 40 c11 54 45 118 60 112 6 -3 20 1
31 9 38 28 33 13 -10 -30 -46 -47 -65 -93 -65 -162 0 -44 16 -103 33 -119 7
-7 8 -3 3 10 -18 48 -18 116 -2 158 16 43 69 107 88 107 6 0 0 -11 -13 -24
-12 -13 -24 -32 -25 -42 -1 -11 -10 -39 -19 -64 -20 -54 -15 -127 15 -197 12
-26 18 -37 15 -23 -26 114 -27 130 -16 176 12 45 40 99 48 90 2 -2 -5 -21 -16
-42 -12 -23 -21 -56 -20 -79 l1 -40 9 43 c8 44 38 102 51 102 13 0 10 -9 -14
-41 -19 -25 -23 -44 -23 -102 0 -60 5 -81 29 -123 15 -29 46 -69 69 -90 l40
-39 -32 47 c-17 26 -38 66 -46 89 -20 56 -19 150 1 175 15 19 16 19 8 -1 -4
-11 -9 -45 -10 -75 l-3 -55 8 51 c8 47 28 100 36 92 2 -2 -3 -24 -12 -50 -12
-38 -13 -56 -3 -102 6 -31 13 -56 15 -56 2 0 1 26 -2 58 -5 52 3 85 35 144 5
9 -39 22 -66 19 -23 -3 -23 -2 -8 28 15 28 15 31 -6 45 -12 9 -30 16 -40 16
-22 0 -23 8 -3 30 14 15 14 23 3 59 -16 49 -26 54 -78 36 -22 -8 -40 -10 -40
-6 0 5 18 28 41 51 23 23 42 47 43 54 1 6 4 11 8 11 3 0 18 11 32 24 26 24 26
25 7 45 -10 12 -21 30 -23 41 -2 11 -12 24 -23 30 -43 22 -46 25 -34 47 16 29
3 66 -24 70 -18 3 -13 9 37 41 44 29 57 43 53 57 -4 16 -2 17 13 8 14 -9 22
-9 34 1 22 18 20 25 -15 66 -28 32 -27 42 5 36 5 -1 22 3 38 8 27 9 29 9 23
-7 -16 -42 -27 -205 -15 -236 4 -12 15 -45 24 -74 15 -50 15 -53 -4 -72 -22
-22 -25 -46 -11 -82 5 -13 9 -26 10 -30 33 -133 72 -213 121 -248 24 -17 28
-25 20 -35 -7 -8 -9 -23 -5 -34 7 -22 60 -59 97 -67 50 -12 131 -22 142 -18 6
2 25 -9 41 -26 16 -16 35 -30 42 -30 9 0 13 -14 13 -44 0 -56 20 -76 48 -46
17 18 20 19 32 5 7 -8 19 -15 26 -15 8 0 14 -8 14 -17 1 -27 24 -53 47 -53 25
0 38 -15 47 -55 4 -16 9 -38 12 -49 5 -16 2 -15 -27 5 -49 35 -89 69 -131 111
-20 20 -45 37 -55 37 -10 0 -32 2 -50 5 -60 10 -93 -67 -58 -134 19 -37 15
-37 -41 -4 -51 30 -106 95 -86 102 8 2 12 25 12 66 0 63 -12 89 -36 79 -8 -3
-22 1 -30 8 -17 14 -20 15 -66 17 -19 1 -28 8 -28 19 0 9 -7 25 -17 35 -14 16
-18 16 -33 3 -14 -13 -16 -11 -12 20 5 44 -12 46 -27 4 -27 -78 -4 -178 58
-259 l20 -25 -4 35 c-2 19 -7 58 -11 86 -3 28 -2 59 3 68 6 11 9 0 9 -37 0
-71 49 -162 123 -228 30 -27 60 -49 65 -49 6 0 -13 21 -42 46 -84 73 -127 164
-115 240 8 51 18 41 18 -19 0 -51 36 -147 55 -147 5 0 2 12 -6 28 -21 40 -27
87 -18 130 8 37 8 36 14 -23 4 -33 15 -78 26 -100 45 -95 167 -174 321 -209
98 -22 111 -19 32 7 -36 13 -82 35 -102 49 -37 29 -78 100 -76 134 1 12 5 7
11 -14 6 -17 25 -47 42 -65 17 -18 28 -29 24 -23 -14 18 -8 29 8 15 12 -10 11
-4 -5 26 -11 22 -21 56 -20 75 l1 35 9 -38 c12 -50 32 -87 62 -116 14 -13 23
-29 20 -37 -3 -8 0 -14 7 -14 6 0 8 5 5 10 -3 5 -1 10 5 10 6 0 -2 14 -19 30
-29 30 -51 84 -50 125 0 17 5 14 27 -14 15 -19 71 -67 126 -108 71 -52 104
-84 118 -113 39 -79 201 -170 303 -170 82 0 123 23 155 86 15 27 34 61 44 76
10 15 22 54 26 85 5 32 21 91 35 132 32 91 22 110 -26 47 -19 -25 -37 -46 -40
-46 -3 0 -1 18 4 40 6 22 7 43 3 47 -5 4 -11 3 -13 -3 -2 -6 -10 -19 -17 -29
-11 -15 -12 -3 -8 78 4 85 2 97 -12 97 -13 0 -16 -11 -16 -54 0 -65 -8 -94
-21 -74 -6 9 -9 7 -9 -9 0 -24 -15 -32 -22 -12 -2 6 6 41 19 78 12 36 23 75
23 87 0 29 -19 45 -41 33 -17 -8 -18 -5 -12 41 4 34 2 50 -6 50 -6 0 -11 -4
-11 -10 0 -5 -4 -10 -9 -10 -5 0 -2 18 5 41 17 49 10 67 -19 42 -11 -10 -17
-12 -12 -4 8 14 10 28 21 151 6 60 40 159 56 160 4 0 1 -21 -7 -47 -8 -26 -11
-51 -6 -56 5 -5 25 11 46 35 25 29 35 36 31 21 -13 -41 14 -34 34 9 l20 43 -4
-53 c-6 -64 7 -66 42 -6 l23 39 -6 -39 c-8 -47 12 -46 35 2 8 17 18 32 21 32
7 0 -6 -86 -17 -114 -5 -14 -3 -17 12 -15 12 3 30 27 49 65 16 34 39 65 52 71
23 11 23 11 23 -58 0 -40 4 -69 10 -69 18 0 49 62 64 128 8 36 24 74 37 88 20
21 22 34 22 131 0 73 -4 116 -13 133 -8 14 -19 75 -26 136 -13 118 -31 169
-67 185 -12 5 -29 27 -38 47 -15 37 -23 42 -109 80 -68 30 -75 31 -113 22 -27
-6 -42 -3 -64 11 -15 10 -44 19 -64 19 -31 0 -49 10 -105 60 -38 34 -78 70
-90 81 -26 25 -88 48 -134 49 -19 0 -57 7 -84 15 -27 8 -60 15 -74 15 -14 0
-35 12 -51 29 l-27 29 -207 1 c-114 1 -207 -2 -207 -6z m263 -23 c42 0 49 -16
17 -45 -20 -19 -28 -9 -10 13 7 8 7 9 -1 3 -7 -5 -21 -3 -37 5 -41 21 -50 16
-19 -11 17 -15 22 -25 14 -25 -8 0 -22 10 -33 21 -10 12 -32 28 -49 36 -29 14
-28 14 25 9 30 -3 72 -6 93 -6z m148 -9 c13 -11 21 -22 18 -26 -4 -3 -13 0
-19 7 -8 8 -29 12 -54 10 -38 -3 -40 -2 -22 13 26 20 49 19 77 -4z m19 -50
c23 -16 67 -35 80 -33 13 1 28 -21 23 -34 -3 -8 1 -14 10 -14 9 0 29 -11 45
-25 17 -14 37 -25 45 -25 9 0 19 -4 22 -10 3 -5 -1 -10 -9 -10 -8 0 -17 -4
-20 -8 -2 -4 7 -8 21 -7 14 0 28 -5 30 -11 2 -7 -6 -10 -22 -7 -31 6 -55 -12
-55 -41 0 -26 18 -46 41 -46 9 0 24 -11 33 -25 9 -14 23 -25 30 -25 8 0 16
-10 19 -21 5 -18 11 -20 33 -15 21 6 32 3 43 -13 17 -22 65 -26 149 -15 23 3
42 2 42 -3 0 -5 -15 -10 -32 -11 -18 -1 -58 -3 -88 -6 -50 -4 -57 -1 -77 22
-18 22 -24 24 -37 13 -13 -11 -19 -11 -31 -1 -8 7 -15 18 -15 25 0 7 -11 16
-24 19 -13 3 -26 14 -29 25 -2 11 -15 21 -27 23 -13 1 -28 12 -34 23 -6 11
-16 24 -23 28 -9 5 -10 15 -3 33 12 31 13 55 2 37 -9 -14 -62 -28 -62 -16 0 5
6 15 13 23 10 12 9 12 -4 2 -31 -23 -105 16 -96 50 5 19 -17 26 -28 8 -11 -18
25 -70 53 -76 15 -4 34 -12 42 -19 28 -22 49 -25 59 -7 8 14 10 14 11 2 0 -25
-14 -40 -29 -30 -8 4 -20 6 -27 3 -7 -2 -17 5 -24 16 -6 12 -21 21 -34 21 -23
0 -40 15 -64 58 -17 30 -1 52 37 53 14 0 35 4 46 8 17 7 16 9 -13 15 -60 14
-105 14 -139 0 -18 -8 -33 -18 -33 -22 0 -17 14 -21 28 -9 13 10 14 9 10 -3
-7 -21 -38 -19 -52 3 -9 14 -7 20 7 28 11 7 16 17 12 29 -4 13 1 22 14 29 31
17 35 13 10 -10 -21 -17 -21 -19 -3 -10 11 5 27 17 34 26 16 19 52 13 90 -14z
m104 -7 c33 -9 78 -25 98 -36 l37 -21 -25 -14 c-15 -7 -31 -10 -37 -6 -6 4 -3
9 9 14 15 6 13 8 -12 8 -17 1 -44 11 -60 24 -15 12 -44 27 -64 33 -53 18 -16
16 54 -2z m-476 -19 c23 -4 42 -11 42 -17 0 -5 -10 -6 -22 -2 -13 4 -40 8 -61
9 -21 1 -44 8 -50 15 -10 10 -6 11 18 7 17 -3 49 -9 73 -12z m197 -5 c-3 -5
-10 -10 -16 -10 -5 0 -9 5 -9 10 0 6 7 10 16 10 8 0 12 -4 9 -10z m470 -14
c19 -8 35 -19 35 -24 0 -16 -57 -6 -85 16 -26 21 -26 22 -6 22 12 0 37 -7 56
-14z m-685 -11 c7 -8 8 -15 2 -15 -5 0 -15 7 -22 15 -7 8 -8 15 -2 15 5 0 15
-7 22 -15z m180 -4 c0 -11 -48 -31 -73 -31 -27 0 -54 16 -44 26 9 10 88 21
105 16 6 -2 12 -7 12 -11z m181 2 c-26 -4 -36 -11 -44 -34 -14 -36 -22 -37
-25 -3 -1 14 2 23 7 20 5 -3 11 1 15 9 3 10 18 14 43 13 l38 -1 -34 -4z m-383
-43 c-7 -11 -16 -20 -21 -20 -4 0 -3 9 3 20 6 11 15 20 20 20 6 0 5 -9 -2 -20z
m693 -12 c16 -18 29 -37 29 -43 0 -6 15 -16 33 -23 18 -6 42 -18 52 -26 18
-13 19 -15 3 -21 -10 -4 -29 1 -47 14 -16 12 -35 21 -43 21 -7 0 -19 9 -25 19
-10 16 -9 20 5 24 13 4 12 5 -4 6 -24 1 -57 34 -47 46 5 4 3 5 -4 1 -6 -3 -14
-2 -18 4 -15 25 39 7 66 -22z m-450 1 c12 -12 29 -19 40 -16 10 3 23 -1 30 -9
6 -8 16 -14 21 -14 5 0 22 -13 38 -30 16 -16 38 -30 48 -30 10 0 27 -9 36 -19
10 -10 33 -22 52 -26 19 -3 45 -17 56 -31 12 -13 27 -24 33 -24 6 0 34 -23 61
-50 36 -37 55 -50 71 -47 13 3 29 -4 39 -14 10 -12 31 -19 51 -19 l34 0 -25
-27 c-21 -23 -34 -27 -85 -29 -57 -3 -61 -1 -87 31 -15 19 -31 32 -35 29 -4
-2 -10 0 -14 5 -3 6 -12 8 -20 4 -8 -3 -22 -3 -30 0 -11 5 -12 12 -4 37 21 59
-24 120 -87 120 -41 0 -58 -21 -49 -60 4 -18 3 -30 -3 -30 -6 0 -17 -3 -26 -6
-10 -4 -16 -1 -16 7 0 34 -22 89 -35 89 -30 0 -48 -48 -49 -131 l-1 -80 42
-35 c38 -31 41 -37 28 -50 -17 -17 -65 -24 -62 -9 1 6 9 9 17 8 40 -6 41 8 4
47 -22 22 -44 40 -50 40 -7 0 -12 29 -12 83 -1 45 -1 93 -1 106 -2 53 -20 54
-78 4 -30 -26 -61 -59 -69 -74 -9 -19 -27 -32 -52 -39 -20 -5 -58 -30 -84 -54
-54 -49 -60 -78 -28 -119 11 -14 20 -31 19 -39 0 -10 -2 -10 -6 -1 -8 20 -76
49 -81 35 -6 -19 -40 -14 -47 8 -3 10 -2 27 3 37 5 10 8 35 7 56 -2 36 -1 37
29 35 17 -1 37 -8 45 -15 19 -19 41 2 41 38 0 18 5 29 14 29 7 0 24 15 37 34
19 29 28 34 50 29 21 -4 31 0 44 21 10 14 23 26 31 26 7 0 18 8 23 18 6 9 11
13 11 8 0 -19 30 18 30 38 0 11 7 34 15 49 10 21 12 34 5 47 -20 37 -2 42 31
9z m562 -9 l22 -22 -40 7 c-22 4 -48 15 -57 25 -16 17 -16 18 18 15 21 -1 45
-12 57 -25z m-678 0 c-11 -5 -35 -9 -53 -9 -39 -1 -54 -27 -27 -47 10 -8 16
-16 13 -20 -10 -9 -48 34 -48 54 0 28 9 32 74 31 43 0 55 -3 41 -9z m-180 -9
c16 -7 12 -9 -20 -13 -43 -5 -65 -1 -65 13 0 11 57 11 85 0z m250 -19 c-8 -8
-25 10 -19 20 4 6 9 5 15 -3 4 -7 6 -15 4 -17z m-43 -2 c-1 -7 3 -18 9 -26 9
-11 8 -14 -1 -14 -9 0 -7 -7 5 -20 10 -11 13 -20 7 -20 -6 0 -15 6 -19 14 -4
7 -18 18 -30 25 -28 14 -30 3 -8 -39 9 -17 11 -30 6 -30 -5 0 -18 19 -30 42
-18 37 -19 44 -6 57 13 13 18 12 42 -10 l27 -24 -16 26 c-17 27 -14 43 6 35 6
-2 10 -9 8 -16z m697 -14 c26 -21 -31 -24 -66 -3 -18 10 -33 20 -33 22 0 8 86
-9 99 -19z m-929 -11 c-7 -8 -17 -12 -23 -8 -6 4 -3 9 9 14 27 11 28 11 14 -6z
m98 -26 c4 -11 2 -12 -9 -1 -19 18 -29 15 -26 -7 1 -11 -2 -21 -8 -23 -12 -4
-19 37 -11 59 6 13 9 14 28 1 12 -8 24 -21 26 -29z m-143 1 c-3 -5 -15 -10
-26 -10 -11 0 -18 -4 -15 -9 4 -5 -3 -7 -14 -4 -40 11 -17 27 43 32 10 0 15
-3 12 -9z m1020 0 c8 -13 -35 -13 -55 0 -11 7 -7 10 17 10 17 0 35 -4 38 -10z
m-176 -23 c19 -12 46 -29 60 -37 28 -18 39 -40 19 -40 -7 0 -21 -9 -31 -20
-17 -20 -43 -28 -32 -10 3 5 0 7 -8 4 -8 -3 -17 2 -20 10 -4 9 -14 16 -24 16
-17 1 -17 1 0 14 9 7 17 19 17 26 0 9 -7 7 -22 -6 -12 -10 -18 -13 -14 -6 5 8
-1 12 -22 12 -33 0 -57 22 -48 45 9 24 84 19 125 -8z m-809 -3 c-27 -12 -32
-17 -20 -24 11 -7 7 -10 -15 -10 l-30 1 28 24 c15 14 38 25 50 25 17 -1 15 -4
-13 -16z m178 -19 c3 -19 2 -19 -12 -1 -10 12 -21 16 -32 12 -13 -5 -15 -9 -6
-18 14 -14 15 -28 2 -28 -13 0 -32 38 -25 51 4 5 21 9 38 7 23 -2 33 -9 35
-23z m930 5 c17 -19 24 -20 67 -10 33 7 51 8 59 0 7 -7 1 -10 -20 -10 -16 0
-60 -9 -98 -20 -38 -11 -72 -18 -74 -15 -3 2 1 7 9 9 73 23 75 24 49 25 -14 1
-38 -6 -53 -14 -15 -8 -25 -10 -21 -4 3 6 -5 7 -23 3 -22 -5 -25 -4 -17 6 7 6
36 16 65 20 l54 9 -60 -5 c-33 -2 -73 -6 -89 -8 -16 -3 -39 -1 -50 4 -20 8
-20 8 4 14 97 22 175 20 198 -4z m-1084 -36 c-12 -28 -15 -57 -11 -102 4 -48
2 -61 -7 -52 -19 19 -14 142 7 174 25 38 31 28 11 -20z m76 7 c15 -29 12 -48
-5 -25 -14 18 -14 17 -15 -13 0 -21 -5 -32 -12 -30 -7 1 -12 -6 -10 -15 2 -10
-2 -18 -8 -18 -15 0 -12 34 6 80 18 44 28 49 44 21z m220 -8 c0 -26 -42 -91
-48 -75 -2 7 -15 -10 -28 -38 -27 -58 -23 -74 23 -109 l28 -20 -25 -1 c-20 0
-22 -2 -10 -10 13 -9 13 -11 0 -21 -13 -10 -13 -10 0 -6 8 2 26 7 40 11 l25 7
-25 -15 c-32 -20 -23 -20 30 -1 23 8 52 15 64 14 12 -1 3 -7 -23 -15 -59 -18
-81 -40 -80 -78 1 -20 3 -24 6 -11 6 30 25 65 35 65 5 0 1 -14 -7 -31 -9 -17
-14 -33 -11 -36 3 -3 10 6 15 20 5 14 15 28 21 32 9 6 9 10 -1 16 -8 5 -9 9
-3 9 6 0 17 -6 23 -13 8 -11 6 -18 -9 -32 -20 -18 -28 -69 -12 -79 5 -3 7 7 4
22 -5 40 31 76 72 69 22 -3 39 1 56 15 19 15 32 18 60 12 19 -4 46 -6 60 -6
18 1 21 -1 11 -7 -11 -7 -10 -10 5 -13 15 -4 12 -8 -16 -21 -25 -12 -29 -16
-15 -17 33 0 65 28 65 58 0 19 10 35 33 53 50 39 65 46 42 18 -11 -13 -13 -18
-5 -11 19 16 37 15 43 -2 4 -10 1 -13 -9 -9 -7 3 -14 1 -14 -5 0 -5 10 -8 23
-8 30 3 42 -5 26 -15 -23 -14 -59 -10 -59 6 0 8 -5 15 -10 15 -7 0 -7 -6 0
-20 8 -14 8 -20 0 -20 -6 0 -8 -4 -5 -10 3 -5 26 -10 51 -10 24 0 44 -4 44
-10 0 -5 -18 -10 -40 -10 -22 0 -40 -4 -40 -8 0 -5 19 -7 42 -6 57 3 75 -12
68 -56 l-5 -35 -19 28 c-24 36 -32 28 -12 -12 17 -32 22 -76 8 -67 -5 3 -7 -7
-4 -23 2 -16 -2 -32 -11 -40 -13 -10 -18 -8 -31 11 -9 12 -16 28 -16 34 0 10
-34 27 -51 25 -4 0 -15 9 -24 19 -10 11 -24 20 -32 20 -7 0 -13 6 -13 13 0 6
-9 23 -20 37 -11 14 -20 21 -19 15 0 -5 6 -19 14 -29 34 -44 3 -64 -36 -23
l-21 22 7 -23 c11 -39 -36 -25 -55 15 -20 44 -34 42 -16 -1 11 -27 12 -37 3
-44 -15 -12 -59 -27 -71 -24 -4 2 -14 -3 -22 -9 -19 -16 -70 -4 -118 27 -21
14 -68 36 -105 48 -56 18 -69 26 -85 57 -19 35 -19 36 0 58 10 12 36 31 57 42
20 11 37 22 37 24 0 11 -56 -9 -82 -28 -23 -17 -30 -18 -43 -7 -22 18 -15 59
13 78 21 14 22 13 16 -4 -5 -16 -4 -16 5 -4 6 8 11 23 11 32 0 11 10 20 28 24
53 11 71 24 92 64 11 22 25 38 30 35 6 -4 10 1 10 9 0 8 5 18 11 22 8 4 9 -1
4 -16 -5 -15 -3 -20 3 -16 6 3 16 22 22 41 13 38 20 45 20 18z m1009 -13 c41
-20 58 -47 42 -63 -17 -17 -99 -12 -121 8 -22 20 -28 8 -7 -15 6 -8 0 -4 -15
9 -14 13 -37 23 -50 23 -48 0 -113 -15 -121 -28 -10 -17 -34 -18 -39 -2 -3 9
-9 8 -21 -4 -20 -20 -92 -14 -120 10 -43 37 38 55 171 37 64 -8 172 8 172 27
0 10 -3 10 -37 -3 -32 -13 -98 -21 -88 -11 13 13 91 30 143 31 34 1 66 -6 91
-19z m-1149 1 c0 -5 -7 -12 -16 -15 -24 -9 -28 -7 -14 9 14 17 30 20 30 6z
m277 -132 c12 -19 34 -41 48 -47 40 -18 101 -14 148 9 31 16 38 18 29 6 -8 -9
-33 -23 -57 -33 -65 -24 -125 -13 -164 31 -41 47 -61 119 -43 162 5 12 9 1 12
-37 3 -32 14 -70 27 -91z m-501 106 c-10 -7 -15 -18 -12 -24 10 -16 -10 -21
-30 -7 -15 12 -16 16 -5 30 7 9 25 16 40 16 24 -1 25 -1 7 -15z m649 -11 c36
-39 31 -47 -11 -19 -20 14 -48 25 -61 25 -14 0 -21 4 -18 10 12 20 65 11 90
-16z m-761 -7 c-12 -7 -19 -16 -18 -22 2 -5 -13 -11 -34 -12 l-37 -2 40 25
c22 13 47 24 55 24 10 -1 8 -5 -6 -13z m36 -28 c-7 -11 -14 -19 -16 -16 -7 7
7 37 17 37 6 0 5 -9 -1 -21z m442 -5 c-23 -16 -31 -41 -9 -28 8 5 8 3 -2 -9
-7 -9 -17 -14 -22 -12 -4 3 -13 -4 -19 -15 -13 -24 4 -24 29 -1 19 17 29 -3
12 -23 -6 -7 -9 -22 -5 -32 3 -11 2 -15 -3 -9 -4 6 -15 11 -23 13 -21 5 -40
22 -40 36 0 16 90 110 98 102 3 -4 -4 -13 -16 -22z m268 -7 c11 -9 20 -21 20
-27 0 -15 -20 -12 -26 4 -3 8 -11 13 -17 10 -17 -6 -41 12 -33 24 8 14 33 9
56 -11z m-669 -22 c5 4 9 1 9 -4 0 -6 -6 -11 -14 -11 -8 0 -17 -6 -19 -12 -3
-7 -6 1 -6 18 -1 36 13 56 17 25 2 -12 8 -19 13 -16z m1315 10 c38 -22 137
-52 157 -47 4 1 14 -12 22 -30 10 -24 14 -27 14 -13 0 11 -8 31 -18 44 -21 27
-18 53 5 44 35 -13 58 -103 52 -203 -1 -19 -2 -61 -2 -92 0 -50 -2 -58 -18
-58 -11 0 -16 -5 -13 -11 4 -6 13 -8 20 -5 13 4 35 -33 35 -59 0 -8 -7 -15
-16 -15 -14 0 -14 -3 -4 -15 24 -29 -3 -38 -43 -15 -23 14 -45 19 -64 15 -22
-4 -24 -3 -8 4 16 7 11 9 -24 9 -28 0 -39 -3 -30 -9 10 -6 6 -9 -14 -9 -16 0
-26 4 -23 9 3 5 -14 6 -38 4 -37 -5 -46 -2 -55 15 -6 11 -8 35 -5 54 4 23 3
29 -4 19 -8 -11 -11 -9 -17 8 -3 11 -11 21 -16 21 -6 0 -6 -7 1 -19 13 -25 13
-34 -1 -25 -6 3 -3 -8 6 -26 16 -31 16 -32 -6 -48 -13 -9 -38 -15 -56 -13 -18
1 -33 -2 -33 -7 0 -4 14 -7 30 -4 20 3 30 0 30 -8 0 -10 -16 -11 -65 -6 -45 5
-71 3 -85 -6 -18 -11 -23 -10 -40 12 -11 14 -20 35 -20 48 0 19 -2 21 -14 10
-8 -7 -10 -15 -6 -18 5 -3 12 -18 15 -33 4 -15 12 -27 18 -27 6 0 8 -3 5 -6
-7 -7 -85 14 -92 24 -5 8 19 105 30 123 3 6 6 28 6 50 -1 48 13 50 28 4 12
-36 43 -65 70 -65 11 0 9 5 -8 18 -25 19 -56 72 -42 72 4 0 11 -7 14 -16 4 -9
9 -14 13 -11 3 4 -9 23 -26 43 -30 34 -31 37 -17 60 9 13 16 35 16 49 0 14 5
25 11 25 5 0 7 -6 3 -12 -6 -10 -4 -10 8 0 9 7 18 22 21 32 7 27 -2 25 -13 -2
-6 -17 -9 -18 -9 -6 -1 24 38 48 74 47 l30 -2 -35 -7 -35 -7 41 -2 c22 0 46 5
53 12 11 10 13 9 8 -4 -3 -9 -1 -21 5 -27 7 -7 6 -17 -1 -31 -12 -21 2 -31 14
-10 4 6 21 10 39 9 55 -3 60 -2 46 15 -22 27 11 17 54 -15 22 -17 42 -27 45
-24 7 6 -12 22 -83 71 -53 37 -58 62 -21 98 30 31 29 31 81 0z m-823 -14 c8
-40 52 -88 94 -102 44 -14 110 -6 163 21 44 22 50 24 50 12 0 -16 -82 -54
-120 -56 -21 0 -36 -5 -33 -9 3 -5 22 -6 42 -3 34 5 35 5 8 -5 -22 -9 -38 -8
-71 5 -43 17 -88 22 -51 6 14 -6 16 -9 4 -9 -16 -1 -57 38 -78 74 -11 18 -11
18 -5 -5 5 -20 4 -23 -7 -12 -14 13 -22 112 -9 112 4 0 10 -13 13 -29z m703
21 c-14 -22 -14 -66 0 -87 12 -18 12 -24 2 -28 -21 -7 -38 4 -38 23 0 23 -18
35 -45 32 -19 -2 -19 -1 1 7 12 5 33 21 47 35 25 25 44 35 33 18z m-573 -67
c32 -14 32 -14 5 -15 -29 0 -68 40 -68 69 1 10 7 5 16 -12 9 -16 30 -35 47
-42z m48 15 l34 -8 -36 -1 c-23 -1 -46 7 -63 20 -36 28 -33 45 3 18 16 -11 44
-25 62 -29z m-711 14 c0 -14 -4 -23 -10 -19 -18 11 -11 -22 8 -36 15 -13 16
-12 3 4 -15 19 -2 24 17 5 17 -17 15 -24 -8 -25 -36 -3 -70 77 -37 90 23 10
27 7 27 -19z m87 -6 c-3 -7 -5 -2 -5 12 0 14 2 19 5 13 2 -7 2 -19 0 -25z
m1409 7 c18 -13 18 -14 -4 -8 -12 3 -25 9 -28 14 -8 14 10 11 32 -6z m-1601
-71 c-22 -19 -30 -30 -18 -25 27 14 33 14 33 1 0 -5 -6 -10 -14 -10 -7 0 -30
-11 -51 -25 -20 -15 -39 -24 -42 -22 -7 8 104 117 119 117 7 0 -5 -16 -27 -36z
m90 -23 c5 -12 8 -13 14 -2 6 9 11 10 15 2 4 -6 2 -11 -4 -11 -6 0 -8 -4 -5
-10 8 -13 -1 -13 -24 0 -23 12 -33 37 -15 37 7 0 16 -7 19 -16z m511 -19 c-9
-8 -26 10 -26 26 1 15 2 15 15 -2 8 -11 13 -21 11 -24z m-516 -19 c12 -15 12
-16 0 -5 -8 6 -21 12 -29 11 -11 0 -12 -2 -3 -6 6 -2 12 -13 12 -24 0 -11 7
-22 15 -25 16 -7 21 -24 6 -24 -14 0 -57 74 -53 92 4 21 29 11 52 -19z m950
16 c0 -6 -4 -7 -10 -4 -5 3 -10 11 -10 16 0 6 5 7 10 4 6 -3 10 -11 10 -16z
m60 11 c0 -5 -4 -10 -10 -10 -5 0 -10 5 -10 10 0 6 5 10 10 10 6 0 10 -4 10
-10z m-30 -21 c0 -6 -4 -7 -10 -4 -5 3 -10 11 -10 16 0 6 5 7 10 4 6 -3 10
-11 10 -16z m-1067 -24 c-3 -9 -8 -14 -10 -11 -3 3 -2 9 2 15 9 16 15 13 8 -4z
m1102 -15 c-9 -18 -13 -40 -9 -53 6 -21 5 -21 -12 -4 -16 15 -17 20 -5 40 14
22 14 22 -8 3 -14 -13 -21 -15 -21 -6 0 16 38 50 57 50 11 0 11 -6 -2 -30z
m-978 -5 c0 -8 -4 -15 -9 -15 -4 0 -8 7 -8 15 0 8 4 15 8 15 5 0 9 -7 9 -15z
m913 5 c0 -5 -17 -9 -37 -9 l-38 2 35 7 c19 4 36 8 38 9 1 0 2 -3 2 -9z m-992
-12 c17 -17 15 -27 -5 -24 -10 2 -19 10 -21 19 -4 20 9 22 26 5z m-58 -7 c0
-5 -7 -12 -16 -15 -24 -9 -28 -7 -14 9 14 17 30 20 30 6z m1727 -13 c-3 -8 -6
-5 -6 6 -1 11 2 17 5 13 3 -3 4 -12 1 -19z m-1507 -32 c-15 -41 -13 -106 5
-112 8 -4 15 -10 15 -16 0 -5 -4 -6 -10 -3 -18 11 -10 -14 20 -62 17 -26 30
-57 30 -69 0 -13 4 -33 9 -46 5 -13 12 -36 16 -52 3 -15 9 -26 12 -22 3 3 13
-3 20 -14 8 -11 19 -18 24 -14 5 3 9 2 8 -3 -3 -20 2 -27 10 -13 7 10 1 22
-23 45 -18 16 -21 21 -8 10 l25 -20 -14 25 c-8 14 -20 32 -27 41 -11 14 -10
18 3 23 9 3 14 2 11 -3 -3 -5 1 -14 9 -21 10 -9 15 -9 15 -1 0 6 -6 11 -12 11
-10 0 -10 2 0 9 11 7 11 9 -2 14 -18 7 -22 27 -5 27 5 0 7 -5 3 -12 -5 -7 -3
-8 6 -3 10 6 10 11 -3 20 -10 7 -17 19 -17 27 0 8 -9 23 -20 33 -11 10 -17 22
-14 27 3 5 1 14 -4 21 -5 7 -12 26 -15 42 -4 17 -4 24 0 16 4 -10 7 -11 13 -1
6 9 13 2 25 -21 10 -19 28 -47 40 -64 13 -16 33 -58 45 -92 12 -35 29 -68 36
-74 16 -13 19 2 4 17 -14 14 -51 126 -44 133 3 3 24 -5 47 -18 l42 -24 -20 23
c-20 23 -20 23 0 12 11 -6 35 -26 54 -46 19 -19 37 -33 41 -31 4 2 21 -15 38
-39 33 -46 40 -97 26 -199 -4 -36 -2 -54 11 -73 29 -44 11 -36 -45 21 -30 30
-49 55 -42 55 7 0 12 8 12 18 0 13 -2 14 -9 3 -7 -11 -11 -10 -20 5 -11 17
-11 16 -6 -6 5 -20 4 -22 -5 -8 -6 9 -13 43 -15 75 -6 68 -13 93 -26 93 -6 0
-6 -7 -1 -17 5 -10 12 -49 15 -88 5 -67 7 -72 47 -107 24 -21 40 -38 36 -38
-21 0 -114 57 -143 88 -20 20 -32 31 -28 23 6 -10 4 -13 -6 -9 -8 3 -34 14
-59 23 -25 10 -50 24 -57 32 -6 8 -15 13 -20 12 -4 -1 -12 8 -18 19 -5 12 -20
24 -32 27 -31 7 -52 51 -34 68 11 10 12 8 7 -9 -4 -14 -1 -26 11 -35 15 -11
16 -11 6 1 -16 17 -17 34 -2 24 12 -7 1 16 -22 46 -9 13 -10 12 -5 -4 5 -15 4
-17 -7 -8 -9 8 -13 31 -11 74 2 50 1 56 -5 28 -5 -21 -6 4 -3 65 2 55 11 114
19 130 7 17 11 21 7 10 -3 -11 -7 -33 -10 -50 -3 -22 -1 -19 9 11 19 55 27 68
39 56 5 -5 5 -19 -2 -36z m40 24 c0 -5 -2 -10 -4 -10 -3 0 -8 5 -11 10 -3 6
-1 10 4 10 6 0 11 -4 11 -10z m-241 -21 c-22 -14 -33 -10 -19 6 7 8 17 12 22
9 6 -4 5 -10 -3 -15z m-53 -14 c-21 -16 -32 -13 -21 4 3 6 14 11 23 11 15 -1
15 -2 -2 -15z m294 8 c-1 -5 -7 -19 -14 -32 -8 -14 -12 -32 -9 -40 3 -11 1
-10 -7 2 -9 13 -8 25 2 47 12 27 29 41 28 23z m47 -26 c11 -24 64 -54 146 -82
26 -9 54 -23 61 -31 38 -38 97 -42 176 -13 60 22 176 34 185 18 4 -5 13 -9 21
-9 15 0 107 -71 100 -77 -5 -5 -58 24 -66 37 -3 5 -25 12 -48 15 -34 3 -47 -1
-62 -18 -11 -11 -20 -25 -20 -31 0 -11 59 -119 70 -126 4 -3 12 -15 19 -27 14
-28 29 -29 48 -5 8 9 12 11 8 5 -3 -7 -2 -13 4 -13 5 0 27 -17 47 -37 23 -24
38 -33 41 -25 7 19 27 14 41 -9 8 -13 20 -19 32 -16 20 5 58 -32 43 -42 -15
-10 -30 -43 -37 -85 l-7 -39 -37 36 c-30 29 -47 37 -93 42 -34 4 -59 3 -63 -3
-3 -5 -25 0 -53 14 -86 44 -123 27 -119 -56 2 -58 -12 -69 -44 -35 l-22 23 21
7 c12 3 22 12 22 18 1 7 3 28 5 47 4 48 18 106 40 162 17 44 17 49 2 64 -14
15 -17 14 -37 -2 -11 -10 -26 -33 -32 -51 -12 -37 -24 -36 -33 3 -12 46 -116
173 -149 181 -6 1 -37 8 -67 14 -54 12 -90 32 -90 52 0 22 -44 57 -71 57 -27
0 -27 1 -18 30 13 36 22 38 36 7z m1434 -15 c18 -45 21 -233 3 -239 -19 -6
-26 40 -7 50 12 7 12 11 3 17 -9 5 -9 13 -2 25 7 13 5 28 -4 51 -10 23 -11 35
-3 40 8 5 8 8 0 14 -14 8 -27 80 -15 80 5 0 16 -17 25 -38z m-1667 -12 c11
-11 17 -22 13 -26 -3 -3 -13 1 -22 10 -33 32 -107 14 -143 -36 -7 -10 -18 -18
-23 -18 -18 0 41 68 74 84 37 18 73 13 101 -14z m-52 -58 c-6 -2 -14 -3 -17
-3 -6 2 -15 -5 -72 -54 -37 -32 -67 -80 -87 -139 -4 -10 -9 -16 -12 -13 -12
12 28 105 61 144 36 43 111 87 129 76 6 -4 6 -8 -2 -11z m883 8 c3 -5 2 -10
-4 -10 -5 0 -13 5 -16 10 -3 6 -2 10 4 10 5 0 13 -4 16 -10z m75 -50 c0 -5 -2
-10 -4 -10 -3 0 -8 5 -11 10 -3 6 -1 10 4 10 6 0 11 -4 11 -10z m-104 -86
c-22 -47 -31 -38 -15 15 8 28 16 38 23 31 7 -7 4 -21 -8 -46z m-26 38 c0 -5
-7 -17 -16 -28 -14 -17 -15 -17 -10 -1 3 10 6 23 6 28 0 5 5 9 10 9 6 0 10 -4
10 -8z m64 -62 c-17 -33 -43 -67 -44 -56 0 5 10 36 22 70 19 52 23 57 29 36 3
-14 0 -36 -7 -50z m501 60 c4 -6 -5 -10 -20 -10 -15 0 -24 4 -20 10 3 6 12 10
20 10 8 0 17 -4 20 -10z m-853 -54 c10 -19 10 -20 -6 -7 -9 8 -22 24 -28 35
-10 19 -10 20 6 7 9 -8 22 -24 28 -35z m393 25 c-3 -5 -1 -13 5 -16 6 -4 8
-16 4 -28 -9 -28 -54 -100 -59 -95 -3 2 4 28 15 56 11 29 20 61 20 72 0 11 5
20 11 20 5 0 8 -4 4 -9z m295 -5 c0 -2 -11 -6 -25 -8 -14 -3 -25 -1 -25 3 0 5
11 9 25 9 14 0 25 -2 25 -4z m-230 -31 c5 11 9 15 9 9 1 -19 -41 -114 -50
-114 -12 0 -11 5 3 75 10 52 12 55 21 34 9 -23 9 -23 17 -4z m500 -2 c-13 -45
-33 -83 -43 -83 -5 0 -6 7 -3 16 3 9 6 33 6 55 0 35 3 39 24 39 22 0 24 -3 16
-27z m52 2 c-6 -32 -21 -65 -31 -65 -5 0 -5 15 0 38 5 20 9 41 9 45 0 5 6 7
13 4 6 -2 11 -12 9 -22z m41 -31 c-20 -59 -32 -56 -19 5 6 32 14 47 22 44 10
-3 9 -14 -3 -49z m-153 39 c0 -20 -35 -103 -43 -103 -5 0 -7 10 -3 23 3 12 6
37 6 55 0 25 4 32 20 32 11 0 20 -3 20 -7z m206 -20 c-10 -42 -28 -83 -36 -83
-3 0 -2 25 3 55 7 37 15 55 25 55 10 0 12 -7 8 -27z m-290 -45 c-17 -59 -71
-152 -62 -108 2 14 8 55 11 92 7 63 9 67 34 70 14 2 28 3 29 1 2 -1 -3 -25
-12 -55z m323 -16 c0 -37 -7 -85 -14 -107 -14 -39 -14 -39 -9 35 2 41 5 92 5
112 1 21 5 35 10 32 5 -3 9 -35 8 -72z m-628 40 c0 -11 4 -9 11 8 6 14 12 20
15 13 5 -12 -65 -158 -73 -150 -8 8 29 157 37 151 5 -3 9 -13 10 -22z m99 18
c0 -5 -4 -10 -10 -10 -5 0 -10 5 -10 10 0 6 5 10 10 10 6 0 10 -4 10 -10z
m126 -42 c-3 -17 -17 -54 -30 -82 l-24 -51 -1 76 c-1 42 2 79 6 82 3 4 17 7
31 7 22 0 24 -3 18 -32z m-76 1 c0 -19 -46 -149 -56 -158 -12 -12 2 147 13
161 17 20 43 18 43 -3z m-1240 7 c0 -2 -20 -24 -45 -48 -54 -54 -60 -45 -9 12
31 34 54 50 54 36z m1160 -11 c0 10 3 16 6 12 8 -8 -37 -137 -47 -137 -7 0 -5
26 7 110 5 33 7 34 20 15 13 -18 14 -18 14 0z m-384 -17 c-22 -35 -46 -116
-55 -188 l-8 -65 -2 56 c-2 79 43 219 69 219 6 0 4 -10 -4 -22z m704 -26 c0
-16 -6 -37 -14 -48 -13 -17 -14 -15 -6 21 5 22 10 43 10 48 0 4 2 7 5 7 3 0 5
-13 5 -28z m112 3 c13 30 3 -53 -11 -89 -16 -39 -18 -32 -12 44 2 36 6 56 9
45 5 -20 5 -20 14 0z m-66 -31 c-4 -14 -9 -24 -12 -21 -3 2 -2 17 2 31 3 15 9
25 11 22 3 -3 2 -17 -1 -32z m-1289 -29 c29 -21 41 -36 39 -50 -2 -11 -1 -14
1 -7 10 27 18 10 15 -29 -3 -23 1 -46 8 -52 9 -9 10 -3 5 26 l-7 37 64 0 c51
0 70 -5 99 -24 19 -13 70 -39 112 -57 97 -40 142 -80 166 -144 23 -62 46 -70
55 -21 4 20 11 36 16 36 16 0 -2 -64 -24 -81 -19 -16 -19 -16 10 -30 18 -9 28
-21 26 -32 -2 -11 4 -17 17 -17 23 0 41 -22 23 -28 -22 -7 -12 -18 16 -17 21
0 28 -5 30 -22 3 -19 -1 -23 -22 -23 -14 0 -26 -5 -26 -11 0 -6 7 -8 16 -5 46
18 63 17 83 -3 18 -18 19 -25 9 -46 -12 -27 -28 -31 -60 -14 -15 8 -19 8 -13
-1 4 -6 18 -16 32 -21 21 -8 30 -6 45 11 23 25 30 25 53 0 24 -26 13 -55 -15
-40 -13 7 -20 7 -20 1 0 -18 51 -25 61 -10 8 11 12 10 24 -6 8 -11 23 -29 33
-40 30 -31 39 -53 12 -30 l-23 20 11 -21 c6 -11 50 -39 97 -63 71 -35 95 -42
131 -39 24 2 44 2 44 0 0 -10 -34 -52 -42 -52 -5 0 -21 9 -35 20 -16 13 -34
17 -52 14 -19 -4 -32 0 -45 15 -20 22 -60 28 -71 11 -4 -6 7 -32 24 -59 32
-50 38 -67 20 -55 -28 17 -79 115 -79 151 0 28 -3 34 -10 23 -21 -33 10 -122
64 -179 22 -24 25 -31 10 -23 -11 6 -26 18 -33 26 -7 8 -18 13 -25 10 -7 -3
-21 7 -31 22 -12 19 -19 23 -25 14 -6 -9 -11 -6 -20 11 -7 13 -19 28 -26 32
-8 4 -14 17 -14 27 0 10 -4 22 -10 25 -5 3 -10 -2 -10 -12 0 -10 -5 -25 -11
-33 -8 -11 -9 -4 -3 25 11 65 13 105 4 100 -12 -7 -33 52 -27 75 3 11 1 20 -4
20 -17 0 -13 -63 7 -102 8 -15 14 -37 14 -50 -1 -28 -23 27 -45 112 l-14 55 3
-70 c2 -38 7 -79 12 -90 5 -15 4 -17 -5 -9 -7 6 -17 43 -23 82 -7 43 -17 73
-25 77 -11 3 -13 -1 -8 -18 5 -20 5 -20 -6 -4 -6 11 -9 31 -6 45 2 15 1 38 -3
52 -6 19 -9 10 -10 -35 l-3 -60 -8 45 c-4 25 -12 74 -17 110 -5 36 -19 81 -31
100 -27 44 -27 27 -1 -25 11 -22 18 -46 15 -55 -3 -9 2 -38 10 -66 8 -27 14
-65 14 -84 -1 -33 -2 -32 -9 10 -5 25 -13 58 -19 73 -6 16 -11 45 -11 65 0 21
-6 47 -14 58 -8 11 -16 36 -18 55 -3 27 -6 31 -12 16 -6 -12 -3 -31 9 -55 19
-42 30 -182 14 -182 -6 0 -7 5 -4 10 3 6 -4 24 -16 42 -13 17 -18 28 -11 24 8
-5 10 -2 6 9 -10 25 -25 3 -31 -44 -3 -22 -10 -41 -16 -41 -11 0 -4 41 14 85
25 59 17 135 -14 135 -7 0 -7 -4 1 -12 17 -17 15 -91 -4 -114 -13 -16 -15 -16
-10 -1 6 20 -2 47 -16 47 -13 0 -38 26 -39 42 0 10 -2 10 -6 1 -2 -7 5 -26 17
-43 12 -16 18 -30 13 -30 -16 0 -62 86 -66 122 -5 47 -20 65 -60 71 -68 11
-123 28 -149 48 -31 22 -38 11 -10 -13 20 -19 149 -78 155 -72 6 6 31 -25 33
-42 2 -12 -7 -14 -44 -8 -26 3 -54 11 -62 16 -12 8 -12 9 3 4 9 -3 17 -1 17 4
0 6 -11 10 -25 10 -34 0 -113 74 -147 137 -15 27 -31 74 -37 106 -9 50 -41
121 -41 91 0 -5 4 -14 10 -20 5 -5 15 -37 21 -69 11 -60 39 -126 67 -157 8
-10 11 -18 6 -18 -23 0 -84 131 -84 183 -1 12 -7 33 -15 47 -15 26 -20 84 -7
78 4 -1 26 -16 49 -33z m1003 -79 c0 -66 -4 -88 -17 -101 -12 -13 -17 -36 -17
-86 -1 -38 -4 -69 -7 -69 -15 0 -20 138 -6 181 8 24 18 66 21 92 6 47 12 67
22 67 2 0 4 -38 4 -84z m-1234 31 c-26 -16 -48 -38 -68 -67 -9 -14 -17 -19
-17 -11 -1 17 73 91 90 90 9 0 7 -4 -5 -12z m1173 -100 c-6 -26 -9 -64 -7 -86
2 -22 0 -37 -4 -35 -12 8 -10 107 3 143 16 46 22 31 8 -22z m-282 -13 c19 -14
31 -29 28 -34 -2 -4 3 -14 13 -21 15 -13 16 -12 3 4 -19 25 -8 21 15 -5 10
-12 13 -18 7 -14 -25 14 -13 -12 13 -29 27 -18 90 -138 100 -192 3 -18 10 -33
15 -33 5 0 6 12 2 28 -4 15 -7 42 -7 59 0 18 -3 28 -7 22 -3 -6 -9 0 -13 14
-3 14 -9 33 -13 44 -6 16 -5 17 13 3 18 -14 18 -14 5 2 -7 10 -17 16 -21 13
-4 -3 -11 2 -14 11 -11 28 -7 37 12 23 15 -13 16 -12 3 4 -7 9 -19 17 -27 17
-7 0 -18 9 -24 20 -13 25 7 27 48 6 28 -14 81 -96 63 -96 -6 0 -2 -15 8 -32
11 -18 27 -55 36 -83 15 -46 15 -52 -1 -87 -14 -31 -21 -37 -39 -32 -20 5 -24
0 -34 -42 -9 -33 -15 -44 -21 -34 -8 12 4 54 22 74 4 6 0 19 -10 29 -17 20
-17 20 13 2 28 -17 27 -16 -5 12 -23 20 -37 27 -42 20 -11 -18 -18 -3 -25 52
-3 28 -9 54 -14 57 -4 2 -5 -11 -2 -31 3 -20 1 -35 -4 -35 -6 0 -40 42 -76 93
-36 50 -82 107 -101 126 -32 31 -38 51 -16 51 21 0 74 -58 100 -109 27 -55 60
-95 60 -73 0 5 -7 15 -15 22 -9 7 -25 35 -37 61 -19 46 -96 129 -118 129 -5 0
-10 5 -10 11 0 19 81 0 117 -27z m127 -4 c27 0 76 -50 105 -107 29 -58 101
-245 101 -263 0 -33 -31 19 -60 99 -16 45 -34 89 -40 96 -7 8 -9 19 -5 25 10
16 -52 107 -78 114 -12 3 -34 6 -49 6 -17 0 -31 8 -38 19 -15 29 -13 32 16 21
14 -6 35 -10 48 -10z m209 -80 c-3 -11 -9 -20 -14 -20 -11 0 -11 3 -3 24 9 23
23 20 17 -4z m-461 -31 c-3 -20 -8 -27 -14 -21 -11 11 -2 52 11 52 4 0 6 -14
3 -31z m482 -33 c-3 -9 -13 -16 -22 -16 -13 0 -12 3 3 20 20 23 29 21 19 -4z
m-713 -13 c13 -16 12 -17 -3 -4 -10 7 -18 15 -18 17 0 8 8 3 21 -13z m300 -76
c-13 -13 -15 21 -3 50 6 15 8 13 10 -11 2 -16 -1 -33 -7 -39z m-483 23 c15
-11 54 -25 87 -31 33 -6 69 -15 80 -19 30 -11 -74 0 -115 12 -39 12 -112 58
-92 58 7 0 25 -9 40 -20z m886 5 c-4 -8 -10 -15 -15 -15 -4 0 -6 7 -3 15 4 8
10 15 15 15 4 0 6 -7 3 -15z m30 -32 c-7 -43 -19 -61 -27 -41 -5 15 17 78 28
78 3 0 3 -17 -1 -37z m-761 8 c15 -1 27 -5 27 -10 0 -10 -62 -4 -95 10 -15 7
-13 8 10 5 17 -3 42 -5 58 -5z m387 -13 c0 -13 -5 -30 -10 -38 -7 -11 -10 -5
-10 23 0 20 5 37 10 37 6 0 10 -10 10 -22z m50 -30 c0 -13 -3 -34 -7 -48 l-7
-25 -6 25 c-7 30 -1 70 11 70 5 0 9 -10 9 -22z m360 -78 c-7 -28 -17 -53 -23
-57 -5 -3 -7 -1 -3 5 3 6 2 13 -3 16 -5 4 0 28 12 57 25 59 34 49 17 -21z
m-1072 29 c-10 -29 -7 -110 6 -154 4 -11 -1 -5 -9 14 -25 53 -21 171 5 171 5
0 4 -14 -2 -31z m762 -34 c-6 -19 -16 -33 -21 -29 -10 6 -6 26 14 74 15 38 22
-1 7 -45z m280 36 c-10 -20 -30 -29 -30 -14 0 10 33 44 37 39 3 -2 0 -14 -7
-25z m-83 -77 c-12 -13 -27 9 -26 39 l0 32 16 -32 c9 -18 14 -36 10 -39z
m-157 -9 c-7 -19 -14 -25 -21 -18 -7 7 -4 22 8 48 14 30 19 34 21 18 2 -10 -2
-32 -8 -48z m-628 -30 c3 -60 -6 -74 -16 -24 -9 45 -7 79 3 79 5 0 11 -25 13
-55z m728 -28 c-12 -31 -26 -60 -32 -63 -7 -5 -9 -1 -5 9 3 9 1 17 -4 19 -5 2
5 30 23 63 38 71 49 54 18 -28z m70 43 c0 -5 -6 -10 -14 -10 -8 0 -18 5 -21
10 -3 6 3 10 14 10 12 0 21 -4 21 -10z m10 -46 c-5 -29 -18 -71 -30 -95 -22
-42 -22 -42 -35 -19 -11 20 -9 29 18 72 26 42 29 51 16 60 -11 8 -11 9 3 4 11
-3 19 2 23 15 11 35 13 17 5 -37z m56 4 c13 -43 -24 -178 -50 -178 -6 0 -5 5
2 12 18 18 15 27 -7 23 -18 -3 -18 -1 5 32 25 37 47 103 38 112 -3 3 -9 -1
-14 -9 -5 -8 -12 -11 -16 -7 -4 3 -2 13 4 20 7 8 9 17 5 21 -4 4 0 4 9 1 10
-4 20 -16 24 -27z m-686 -43 c0 -15 7 -40 16 -56 8 -17 13 -33 10 -36 -7 -8
-45 76 -46 100 0 9 5 17 10 17 6 0 10 -11 10 -25z m760 -18 c0 -42 -27 -134
-42 -143 -7 -5 -9 -2 -5 9 3 9 1 17 -6 20 -7 2 -4 20 11 55 12 28 22 60 22 71
0 12 5 21 10 21 6 0 10 -15 10 -33z m39 -19 c-7 -13 -14 -18 -16 -11 -3 7 1
22 8 35 7 13 14 18 16 11 3 -7 -1 -22 -8 -35z m81 17 c-17 -45 -38 -81 -56
-96 -10 -8 -15 -9 -11 -2 4 6 3 15 -3 18 -6 4 6 26 31 56 22 27 43 49 45 49 2
0 -1 -11 -6 -25z m-170 -22 c0 -21 -3 -24 -9 -14 -5 8 -7 20 -4 28 8 21 13 15
13 -14z m75 -76 c-4 -14 -13 -28 -21 -31 -18 -7 -17 -6 2 33 18 37 28 36 19
-2z m36 -82 c-11 -25 -26 -45 -34 -45 -11 0 -7 14 16 57 35 65 48 57 18 -12z
m-481 35 c0 -5 -2 -10 -4 -10 -3 0 -8 5 -11 10 -3 6 -1 10 4 10 6 0 11 -4 11
-10z m282 -50 c9 -14 16 -16 25 -8 16 13 63 2 63 -15 0 -19 -18 -42 -27 -34
-4 5 -2 12 6 16 10 7 9 10 -3 14 -11 4 -16 1 -17 -11 0 -14 -2 -14 -8 2 -5 14
-10 16 -15 7 -6 -9 -13 -6 -27 10 -17 20 -24 19 -20 -3 2 -15 -7 -8 -23 17 -9
14 -14 30 -11 35 8 13 42 -5 57 -30z m-212 -20 c11 -20 77 -67 102 -72 7 -2
21 -10 31 -19 23 -21 51 -14 67 17 14 26 48 32 68 12 9 -9 17 -7 36 11 25 23
56 25 63 4 3 -7 -11 -29 -31 -50 -34 -37 -36 -38 -108 -38 -66 0 -80 4 -143
38 -87 48 -129 83 -121 102 8 21 23 19 36 -5z"/>
<path d="M1315 2500 c-3 -6 1 -7 9 -4 18 7 21 14 7 14 -6 0 -13 -4 -16 -10z"/>
<path d="M1496 2461 c-15 -6 -10 -10 25 -20 24 -7 53 -20 63 -29 16 -14 18
-14 14 -2 -2 8 -24 22 -48 31 -27 10 -38 18 -29 22 8 3 10 5 4 6 -5 0 -18 -4
-29 -8z"/>
<path d="M1450 2424 c0 -13 18 -39 24 -34 2 3 -2 14 -10 24 -8 11 -14 16 -14
10z"/>
<path d="M1163 2463 c9 -2 23 -2 30 0 6 3 -1 5 -18 5 -16 0 -22 -2 -12 -5z"/>
<path d="M1788 2253 c6 -2 18 -2 25 0 6 3 1 5 -13 5 -14 0 -19 -2 -12 -5z"/>
<path d="M1068 2083 c6 -2 18 -2 25 0 6 3 1 5 -13 5 -14 0 -19 -2 -12 -5z"/>
<path d="M1073 2045 c-15 -16 -16 -25 -5 -25 4 0 13 9 20 20 14 23 3 26 -15 5z"/>
<path d="M1148 2018 c-18 -27 -6 -64 22 -73 13 -4 17 -16 17 -45 0 -25 7 -48
19 -61 21 -23 94 -62 94 -50 0 5 -18 16 -39 26 -46 20 -67 59 -57 107 3 17 3
29 0 25 -3 -3 -15 3 -26 13 -16 14 -19 26 -15 50 8 36 4 38 -15 8z"/>
<path d="M1030 2009 c0 -5 5 -7 10 -4 6 3 10 8 10 11 0 2 -4 4 -10 4 -5 0 -10
-5 -10 -11z"/>
<path d="M1464 1925 c11 -8 22 -12 25 -9 6 6 -19 24 -34 24 -5 -1 -1 -7 9 -15z"/>
<path d="M1141 1909 c-1 -15 7 -33 16 -40 13 -11 15 -11 9 -1 -5 8 -12 26 -16
40 l-8 27 -1 -26z"/>
<path d="M1020 1914 c0 -28 44 -65 95 -79 30 -9 69 -26 87 -39 34 -23 92 -46
112 -46 6 1 -9 9 -34 19 -25 10 -63 30 -84 44 -21 15 -44 27 -50 27 -41 0 -89
24 -106 53 -11 18 -20 27 -20 21z"/>
<path d="M1632 1888 c-15 -15 -16 -64 -2 -73 7 -4 9 2 5 18 -4 14 -2 35 5 46
12 24 10 27 -8 9z"/>
<path d="M1440 1873 c0 -12 5 -25 11 -28 16 -11 17 -2 2 25 -12 24 -13 24 -13
3z"/>
<path d="M1597 1883 c-9 -9 -9 -51 1 -56 4 -3 7 10 7 29 0 19 0 34 -1 34 0 0
-4 -3 -7 -7z"/>
<path d="M1672 1867 c-8 -9 -7 -25 3 -57 l14 -45 -2 57 c-1 32 -3 58 -3 58 -1
0 -6 -6 -12 -13z"/>
<path d="M1706 1853 c-4 -9 -3 -20 2 -25 6 -6 10 1 10 16 0 30 -3 32 -12 9z"/>
<path d="M1330 1800 c0 -6 7 -13 15 -17 24 -9 27 1 5 15 -13 8 -20 8 -20 2z"/>
<path d="M1380 1800 c0 -6 7 -10 15 -10 8 0 15 2 15 4 0 2 -7 6 -15 10 -8 3
-15 1 -15 -4z"/>
<path d="M2218 2243 c7 -3 16 -2 19 1 4 3 -2 6 -13 5 -11 0 -14 -3 -6 -6z"/>
<path d="M2120 2125 c-14 -17 -13 -20 56 -88 45 -45 53 -72 33 -108 -6 -11 -9
-25 -7 -31 2 -6 12 6 22 26 22 47 30 40 27 -27 -1 -36 3 -58 14 -72 17 -20 17
-20 9 0 -13 33 -7 125 8 125 4 0 8 -22 8 -50 0 -54 14 -67 23 -22 16 80 -46
184 -145 245 -33 21 -33 21 -48 2z m135 -121 c9 -15 12 -23 6 -20 -11 7 -35
46 -28 46 3 0 12 -12 22 -26z"/>
<path d="M2333 2060 c1 -11 5 -20 9 -20 11 0 10 28 -1 35 -6 3 -9 -4 -8 -15z"/>
<path d="M2301 2040 c0 -3 8 -34 19 -68 26 -83 25 -112 -4 -155 -24 -35 -24
-35 -3 -41 11 -3 28 -1 36 4 13 8 12 9 -7 10 l-22 0 21 42 c19 37 20 48 11 83
-10 38 -50 135 -51 125z"/>
<path d="M1981 2012 c-6 -12 -11 -27 -11 -34 1 -7 8 0 16 15 9 16 13 31 11 34
-3 2 -10 -4 -16 -15z"/>
<path d="M2346 2003 c6 -4 14 -15 17 -23 5 -11 6 -9 4 4 -1 11 -9 21 -17 23
-10 3 -11 2 -4 -4z"/>
<path d="M2120 1950 c0 -5 7 -10 15 -10 8 0 15 5 15 10 0 6 -7 10 -15 10 -8 0
-15 -4 -15 -10z"/>
<path d="M1990 1934 c0 -10 5 -26 10 -34 8 -11 9 -7 4 15 -8 37 -14 45 -14 19z"/>
<path d="M2130 1910 c0 -5 5 -10 10 -10 6 0 10 5 10 10 0 6 -4 10 -10 10 -5 0
-10 -4 -10 -10z"/>
<path d="M1967 1884 c14 -14 28 -23 31 -20 8 8 -29 46 -44 46 -7 0 -2 -11 13
-26z"/>
<path d="M1900 1870 c0 -5 5 -10 10 -10 6 0 10 5 10 10 0 6 -4 10 -10 10 -5 0
-10 -4 -10 -10z"/>
<path d="M2150 1870 c0 -5 5 -10 10 -10 6 0 10 5 10 10 0 6 -4 10 -10 10 -5 0
-10 -4 -10 -10z"/>
<path d="M2206 1871 c-4 -5 -2 -12 3 -15 5 -4 12 -2 15 3 4 5 2 12 -3 15 -5 4
-12 2 -15 -3z"/>
<path d="M2030 1840 c0 -5 5 -10 10 -10 6 0 10 5 10 10 0 6 -4 10 -10 10 -5 0
-10 -4 -10 -10z"/>
<path d="M2170 1840 c0 -5 7 -10 16 -10 8 0 12 5 9 10 -3 6 -10 10 -16 10 -5
0 -9 -4 -9 -10z"/>
<path d="M1905 1830 c3 -5 10 -10 16 -10 5 0 9 5 9 10 0 6 -7 10 -16 10 -8 0
-12 -4 -9 -10z"/>
<path d="M2220 1830 c0 -5 5 -10 10 -10 6 0 10 5 10 10 0 6 -4 10 -10 10 -5 0
-10 -4 -10 -10z"/>
<path d="M2110 1822 c0 -10 69 -33 106 -36 16 -1 35 -6 41 -9 7 -4 14 -3 17 2
7 11 -37 23 -58 15 -9 -3 -23 -1 -30 5 -18 15 -76 32 -76 23z"/>
<path d="M1915 1801 c-6 -11 9 -23 19 -14 9 9 7 23 -3 23 -6 0 -12 -4 -16 -9z"/>
<path d="M2010 1751 c0 -17 4 -32 8 -35 4 -2 8 11 8 30 0 19 -4 34 -8 34 -4 0
-8 -13 -8 -29z"/>
<path d="M2144 1754 c-4 -14 -3 -29 2 -34 5 -5 10 6 11 26 2 40 -4 44 -13 8z"/>
<path d="M1927 1763 c-13 -12 -7 -60 8 -73 9 -8 15 -9 15 -2 0 6 -5 14 -11 18
-6 3 -9 19 -5 35 6 30 4 34 -7 22z"/>
<path d="M2207 1763 c-9 -9 -9 -43 1 -43 4 0 8 11 8 25 2 27 1 29 -9 18z"/>
<path d="M2272 1745 c-6 -14 -7 -25 -2 -25 9 0 25 39 18 46 -3 2 -10 -7 -16
-21z"/>
<path d="M1970 1732 c0 -17 4 -34 10 -37 6 -4 7 6 3 27 -8 44 -13 48 -13 10z"/>
<path d="M2322 1739 c-7 -11 -11 -23 -9 -25 7 -7 29 24 25 36 -2 6 -9 1 -16
-11z"/>
<path d="M1870 1730 c-8 -14 -8 -26 0 -40 6 -11 12 -20 13 -20 1 0 2 18 2 40
1 46 0 47 -15 20z"/>
<path d="M2377 1724 c-10 -13 -14 -24 -9 -24 13 0 35 27 30 39 -1 5 -11 -2
-21 -15z"/>
<path d="M900 1755 c0 -8 2 -15 4 -15 2 0 6 7 10 15 3 8 1 15 -4 15 -6 0 -10
-7 -10 -15z"/>
<path d="M1141 1633 c1 -12 69 -67 69 -56 0 10 -35 44 -57 57 -7 4 -13 4 -12
-1z"/>
<path d="M1222 1600 c7 -11 17 -20 22 -20 5 0 1 9 -9 20 -10 11 -20 20 -22 20
-2 0 2 -9 9 -20z"/>
<path d="M1270 1521 c0 -5 5 -13 10 -16 6 -3 10 -2 10 4 0 5 -4 13 -10 16 -5
3 -10 2 -10 -4z"/>
<path d="M990 1356 c0 -8 5 -18 10 -21 6 -3 7 -17 4 -30 -7 -29 17 -52 73 -71
60 -22 63 -16 5 12 -48 22 -53 27 -48 49 5 18 0 28 -16 40 -20 13 -21 17 -8
25 13 8 12 10 -2 10 -10 0 -18 -6 -18 -14z"/>
<path d="M1117 1331 c12 -10 19 -22 15 -26 -4 -5 1 -5 11 -2 23 9 44 -2 27
-13 -9 -5 -9 -9 -1 -14 6 -4 11 -2 11 5 0 7 8 5 20 -6 16 -14 18 -21 8 -28
-10 -6 -8 -7 4 -4 33 11 88 -96 88 -173 0 -49 15 -70 24 -35 4 16 3 32 -3 38
-6 6 -11 33 -11 59 0 41 -5 54 -32 85 -63 69 -92 94 -132 114 -49 24 -57 24
-29 0z"/>
<path d="M1115 1200 c3 -5 14 -10 23 -10 15 0 15 2 2 10 -20 13 -33 13 -25 0z"/>
<path d="M1200 1190 c0 -5 5 -10 10 -10 6 0 10 5 10 10 0 6 -4 10 -10 10 -5 0
-10 -4 -10 -10z"/>
<path d="M1320 1126 c0 -8 4 -17 9 -20 5 -4 7 3 4 14 -6 23 -13 26 -13 6z"/>
<path d="M1147 1099 c7 -7 15 -10 18 -7 3 3 -2 9 -12 12 -14 6 -15 5 -6 -5z"/>
<path d="M1490 989 c0 -5 5 -7 10 -4 6 3 10 8 10 11 0 2 -4 4 -10 4 -5 0 -10
-5 -10 -11z"/>
<path d="M1500 960 c0 -5 5 -10 10 -10 6 0 10 5 10 10 0 6 -4 10 -10 10 -5 0
-10 -4 -10 -10z"/>
<path d="M1535 940 c4 -6 11 -8 16 -5 14 9 11 15 -7 15 -8 0 -12 -5 -9 -10z"/>
<path d="M1560 880 c0 -5 4 -10 9 -10 6 0 13 5 16 10 3 6 -1 10 -9 10 -9 0
-16 -4 -16 -10z"/>
<path d="M1525 840 c3 -5 8 -10 11 -10 2 0 4 5 4 10 0 6 -5 10 -11 10 -5 0 -7
-4 -4 -10z"/>
<path d="M1650 785 c0 -5 9 -25 21 -44 12 -20 21 -56 24 -91 3 -55 21 -108 32
-97 2 3 0 14 -6 25 -6 12 -11 29 -11 39 1 11 6 5 15 -15 17 -38 55 -95 61 -89
2 2 -5 21 -16 42 -11 22 -20 35 -20 30 -1 -23 -20 24 -30 70 -9 44 -70 157
-70 130z m57 -142 c-3 -10 -5 -4 -5 12 0 17 2 24 5 18 2 -7 2 -21 0 -30z"/>
<path d="M653 1268 c-15 -20 -25 -38 -20 -38 3 0 12 11 21 25 17 26 16 35 -1
13z"/>
<path d="M675 1166 c-9 -21 -14 -43 -11 -49 2 -7 5 -6 5 3 1 8 8 28 16 44 9
16 13 31 10 34 -2 3 -12 -12 -20 -32z"/>
</g>
</svg>
